<svg id="Layer_1" data-name="Layer 1" xmlns="http://www.w3.org/2000/svg" xmlns:xlink="http://www.w3.org/1999/xlink" width="208px" height="74" viewBox="580 310 960 100"><defs><style>.cls-1{fill:#fff;}.cls-2{fill:url(#linear-gradient);}</style><linearGradient id="linear-gradient" x1="797.47" y1="567.24" x2="1315.32" y2="49.39" gradientUnits="userSpaceOnUse"><stop offset="0.01" stop-color="#ebc17d"/><stop offset="0.19" stop-color="#dfb77c"/><stop offset="0.6" stop-color="#c09860"/><stop offset="0.78" stop-color="#ebd7bc"/><stop offset="0.79" stop-color="#eedcc3"/><stop offset="0.9" stop-color="#eabe81"/></linearGradient></defs><path class="cls-1" d="M1139.77,493.25l7.68-10a23.74,23.74,0,0,0,5.79,4,16.51,16.51,0,0,0,7.28,1.49q5.6,0,8.13-3.09a10.54,10.54,0,0,0,2.55-6.88,10,10,0,0,0-1-4.3,8.9,8.9,0,0,0-3.44-3.69,12.25,12.25,0,0,0-6.49-1.5,20.25,20.25,0,0,0-4.74.55,32.86,32.86,0,0,0-4.24,1.35l-6.58-4.89,5.49-29.53h33.92v12.57h-24l-1.89,10.08a10.67,10.67,0,0,1,2.54-.55,27.32,27.32,0,0,1,3.74-.25,23.92,23.92,0,0,1,11,2.44,18.17,18.17,0,0,1,7.48,6.94,20.31,20.31,0,0,1,2.7,10.67,24.31,24.31,0,0,1-2.6,11.13,19.73,19.73,0,0,1-8,8.28q-5.45,3.15-14,3.15A30.3,30.3,0,0,1,1148.7,499,31.91,31.91,0,0,1,1139.77,493.25Zm79.92,7.89a21.69,21.69,0,0,1-13.67-4.25,25.63,25.63,0,0,1-8.28-11.77,49.72,49.72,0,0,1-2.79-17.41,48.17,48.17,0,0,1,2.79-17.16,25,25,0,0,1,8.33-11.53,22.32,22.32,0,0,1,13.72-4.14q8.48,0,13.92,4.14a24.76,24.76,0,0,1,8.13,11.53,49.85,49.85,0,0,1,2.7,17.16,51.47,51.47,0,0,1-2.7,17.41,25,25,0,0,1-8.18,11.77Q1228.17,501.14,1219.69,501.14Zm.1-13.08a7.2,7.2,0,0,0,5.89-2.69,17.71,17.71,0,0,0,3.24-7.33,46.89,46.89,0,0,0,1-10.33,43.76,43.76,0,0,0-1-10,16.38,16.38,0,0,0-3.29-7,7.48,7.48,0,0,0-5.94-2.6,7.38,7.38,0,0,0-5.84,2.6,16.38,16.38,0,0,0-3.29,7,43.76,43.76,0,0,0-1,10,46.89,46.89,0,0,0,1,10.33,17.36,17.36,0,0,0,3.29,7.33A7.34,7.34,0,0,0,1219.79,488.06Zm47.3,28.74,5.78-9.88a15.39,15.39,0,0,0,2.7,1.6,7.26,7.26,0,0,0,3.09.7,5.57,5.57,0,0,0,3.89-1.45,12.62,12.62,0,0,0,2.89-4.94l1.4-3.79-21.35-46.3h16.36l11.67,29.54,10.58-29.54h15.27l-19.16,46.5c-1.06,2.6-2.13,5.15-3.19,7.68a39.88,39.88,0,0,1-3.75,6.94,16,16,0,0,1-5.43,5,16.7,16.7,0,0,1-8.19,1.84,22.51,22.51,0,0,1-6.88-1A20.06,20.06,0,0,1,1267.09,516.8ZM1361,485.37l5.89,9.08c-.66.47-1.84,1.23-3.54,2.3a32,32,0,0,1-6.73,3,32.91,32.91,0,0,1-10.28,1.4,28,28,0,0,1-13.77-3.2,21.88,21.88,0,0,1-8.88-8.88,28.56,28.56,0,0,1-.25-25.34,22.48,22.48,0,0,1,8.28-9.13,23.79,23.79,0,0,1,13-3.44,22.33,22.33,0,0,1,12.72,3.44,21.38,21.38,0,0,1,7.78,9.48,34.26,34.26,0,0,1,2.65,13.92v2.39h-33.33a9,9,0,0,0,3.39,6.59q3.3,2.89,8.89,2.89a21.56,21.56,0,0,0,9.08-1.64A31.12,31.12,0,0,0,1361,485.37Zm-26.44-14.17h19.76a8.81,8.81,0,0,0-1-4,9,9,0,0,0-3.19-3.44,9.79,9.79,0,0,0-5.44-1.4,10.33,10.33,0,0,0-5.54,1.4,9.61,9.61,0,0,0-3.39,3.44A8.18,8.18,0,0,0,1334.53,471.2Zm69,28.34-.4-4.39q-5,5.79-14.17,5.79a21.47,21.47,0,0,1-6.94-1.25,13.64,13.64,0,0,1-6.23-4.44q-2.6-3.19-2.6-8.78a15,15,0,0,1,2.85-9.28,17.45,17.45,0,0,1,7.73-5.74,29.42,29.42,0,0,1,11-1.94c1.66,0,3.34,0,5,.09a21.47,21.47,0,0,1,3.35.3v-1a5.43,5.43,0,0,0-2.75-5.14,12.49,12.49,0,0,0-6.23-1.55,22.49,22.49,0,0,0-7.88,1.2,25.29,25.29,0,0,0-5.39,2.69l-5.89-8.78a30.89,30.89,0,0,1,7.88-4.24q5-1.95,13.27-1.94,10.68,0,15.77,5.73t5.09,15.42v27.24Zm-.4-16.86v-3.79c-.34-.07-1-.16-1.9-.26s-2-.14-3.19-.14q-6,0-8.48,1.69a5.48,5.48,0,0,0-2.5,4.79q0,5.79,7,5.79a10.29,10.29,0,0,0,6.24-2.1A7,7,0,0,0,1403.18,482.68Zm24.24,16.86v-46.8h13.78l.49,5.89a21.45,21.45,0,0,1,4.94-4.59,13.94,13.94,0,0,1,8.13-2.19,23.21,23.21,0,0,1,3.25.19,13.21,13.21,0,0,1,2.64.7l-2.29,12.67a17.45,17.45,0,0,0-5.19-.69,11.3,11.3,0,0,0-8.23,3c-2.1,2-3.15,4.9-3.15,8.63v23.15Zm35.42-5.29,7.09-9.18a18.32,18.32,0,0,0,6,3.49,20.49,20.49,0,0,0,7.24,1.4,14.16,14.16,0,0,0,5.29-.85,3.05,3.05,0,0,0,2.09-3,2.92,2.92,0,0,0-.85-2.15,9.67,9.67,0,0,0-3.19-1.74q-2.34-.9-6.83-2.1a37.05,37.05,0,0,1-6.94-2.69,15.64,15.64,0,0,1-5.49-4.54,11.52,11.52,0,0,1-2.14-7.14,11.85,11.85,0,0,1,2.59-7.63,17.22,17.22,0,0,1,7.09-5.09,26.26,26.26,0,0,1,10.07-1.84,37.41,37.41,0,0,1,10.53,1.34,28.1,28.1,0,0,1,8.23,3.95l-6.08,9.47a27.93,27.93,0,0,0-5.19-2.69,17.87,17.87,0,0,0-6.69-1.2,9.28,9.28,0,0,0-4.79,1,2.88,2.88,0,0,0-1.49,2.55c0,1.53,1,2.66,3.14,3.39s4.87,1.56,8.33,2.49q7.08,1.89,10.38,5.44a13.17,13.17,0,0,1,3.29,9.33,12.19,12.19,0,0,1-3,8.43,17.74,17.74,0,0,1-7.74,4.94,31.3,31.3,0,0,1-10,1.6,39.74,39.74,0,0,1-11.88-1.75A22.36,22.36,0,0,1,1462.84,494.25Z"/><path class="cls-2" d="M627.8,199.31h65.7q18.74,0,31.81,5.65t21.11,14.41a56.48,56.48,0,0,1,11.74,19.17,59.42,59.42,0,0,1,3.71,19.92q0,18.72-8.17,33.14t-25.12,23l45.78,82.93H732.15L692,319.4H663.77v78.17h-36Zm66,89.17q14.26,0,22.14-8.32A28.34,28.34,0,0,0,723.82,260q0-12.78-8.32-20.81t-21.7-8h-30v57.37Zm175.09,96q-5.65,6.84-17.24,12.19A61,61,0,0,1,825.79,402a56.26,56.26,0,0,1-17.1-2.68,48.17,48.17,0,0,1-15.46-8.17,40.79,40.79,0,0,1-11.29-14.12,44.58,44.58,0,0,1-4.31-20.21,48.81,48.81,0,0,1,4.46-21.26,44.07,44.07,0,0,1,12.48-15.75,55.32,55.32,0,0,1,19.32-9.66,89.64,89.64,0,0,1,25-3.27q4.17,0,9.22.15t9.81.44c3.57.21,7.23.41,11,.6v-3.27a19,19,0,0,0-8.32-16.35q-8.34-5.94-21.71-5.94-14.86,0-23.78,3.86a106.37,106.37,0,0,0-15.75,8.32l-16.05-23.78c2.77-2,5.94-4,9.51-6.09a74.27,74.27,0,0,1,12.48-5.65,103.19,103.19,0,0,1,16.5-4.16,129.55,129.55,0,0,1,21.85-1.63,74.69,74.69,0,0,1,24.23,3.71,55.66,55.66,0,0,1,18.58,10.41,45.34,45.34,0,0,1,11.89,16.05,49.63,49.63,0,0,1,4.16,20.36v93.63h-32.7Zm0-49.94q-5.35-.29-10.41-.59c-2.77-.19-5.7-.34-8.77-.45s-5.69-.14-7.87-.14q-17,0-23.78,6.68t-6.84,15.31q0,8.92,6.39,14t18.88,5.06a36.28,36.28,0,0,0,22.29-7.73,30.53,30.53,0,0,0,7.28-8.33,19.36,19.36,0,0,0,2.83-10.1Zm55.59-76.39h33.59l.89,15.76a76.7,76.7,0,0,1,6.39-6.24,48.82,48.82,0,0,1,8.92-6.1A54.71,54.71,0,0,1,986,257a57,57,0,0,1,14.86-1.78q26.16,0,39.84,15.61t13.67,42.06v84.71h-35.07V313.15q0-13.36-7.29-20.66t-18.87-7.28A32.12,32.12,0,0,0,979.77,288a31.35,31.35,0,0,0-10.7,7.87,37.69,37.69,0,0,0-7,11.74,40.59,40.59,0,0,0-2.53,14.42v75.5H924.48Zm146,0h33.89l.89,15.76a61.29,61.29,0,0,1,6.69-6.24,48.71,48.71,0,0,1,9.52-5.95,65.68,65.68,0,0,1,12.48-4.46,63.13,63.13,0,0,1,15.61-1.78q16,0,27.79,6.24a58.18,58.18,0,0,1,19.47,16.5,72.57,72.57,0,0,1,11.6,23.33,95.2,95.2,0,0,1,3.86,27.05q0,16.35-4.76,27.94a77.4,77.4,0,0,1-11.89,20.21q-11.88,14.26-26,19.92a77.46,77.46,0,0,1-29,5.65,98.43,98.43,0,0,1-11.74-.6,69.65,69.65,0,0,1-8.92-1.63,66.29,66.29,0,0,1-7.43-2.38l-7.29-2.82V457h-34.78Zm34.78,105.23q10.41,8.63,31.51,8.62a37.36,37.36,0,0,0,17-3.72,39.66,39.66,0,0,0,12.63-9.81,42.29,42.29,0,0,0,7.88-13.82,48.79,48.79,0,0,0,2.68-16.05,68.49,68.49,0,0,0-1.94-16.65,37.77,37.77,0,0,0-6.24-13.52,30.83,30.83,0,0,0-11.15-9.22q-6.84-3.41-16.94-3.41a31.08,31.08,0,0,0-14.57,3.41,37.64,37.64,0,0,0-11.14,8.77,40.9,40.9,0,0,0-7.14,11.74,33.65,33.65,0,0,0-2.53,12.34Zm211.36,21.1q-5.64,6.84-17.24,12.19a61,61,0,0,1-25.86,5.35,56.2,56.2,0,0,1-17.09-2.68,48.07,48.07,0,0,1-15.46-8.17,40.82,40.82,0,0,1-11.3-14.12,44.71,44.71,0,0,1-4.31-20.21,49,49,0,0,1,4.46-21.26,44.1,44.1,0,0,1,12.49-15.75,55.23,55.23,0,0,1,19.32-9.66,89.59,89.59,0,0,1,25-3.27q4.15,0,9.21.15t9.81.44q5.36.31,11,.6v-3.27a19,19,0,0,0-8.32-16.35q-8.32-5.94-21.7-5.94-14.86,0-23.78,3.86a106.51,106.51,0,0,0-15.76,8.32l-16-23.78c2.77-2,6-4,9.51-6.09A74,74,0,0,1,1253,259.2a102.64,102.64,0,0,1,16.5-4.16,129.42,129.42,0,0,1,21.84-1.63,74.64,74.64,0,0,1,24.23,3.71,55.57,55.57,0,0,1,18.58,10.41A45.34,45.34,0,0,1,1346,283.58a49.63,49.63,0,0,1,4.16,20.36v93.63h-32.7Zm0-49.94q-5.34-.29-10.4-.59-4.17-.29-8.77-.45c-3.08-.09-5.7-.14-7.88-.14q-16.95,0-23.78,6.68t-6.84,15.31q0,8.92,6.39,14t18.88,5.06a36.34,36.34,0,0,0,22.3-7.73,30.7,30.7,0,0,0,7.28-8.33,19.44,19.44,0,0,0,2.82-10.1Zm55.59-135.24h35.08V307.5l50.24-49.34h41.32l-52.32,51.43,58.26,88h-41.91l-40.43-64.2-15.16,14.86v49.34h-35.08Zm146.66,73.6h-2.92v5.42h-1.37V265.62h4.54c3.27,0,4.13,1.83,4.13,3.64a3.38,3.38,0,0,1-2.91,3.47l3.31,5.6H1522Zm-2.92-1.19h3c2.06,0,2.8-1.09,2.8-2.46s-.72-2.46-2.8-2.46h-3Zm2.48,14.07A13.82,13.82,0,1,1,1532.2,272,13.83,13.83,0,0,1,1518.38,285.79Zm0-26.27A12.46,12.46,0,1,0,1530.84,272,12.46,12.46,0,0,0,1518.38,259.52Z"/></svg>